<?xml version="1.0" encoding="UTF-8" standalone="no"?>
<!DOCTYPE svg PUBLIC "-//W3C//DTD SVG 1.1//EN" "http://www.w3.org/Graphics/SVG/1.1/DTD/svg11.dtd">
<svg width="100%" height="100%" viewBox="0 0 570 217" version="1.1" xmlns="http://www.w3.org/2000/svg" xmlns:xlink="http://www.w3.org/1999/xlink" xml:space="preserve" style="fill-rule:evenodd;clip-rule:evenodd;stroke-linejoin:round;stroke-miterlimit:1.41421;">
    <g transform="matrix(1.31618,0,0,1.23797,-169.577,-390.358)">
        <g transform="matrix(1,0,0,1,-533.357,-107.075)">
            <path d="M747.544,474.141L756.952,474.141C759.384,474.141 761.4,473.725 763,472.893C764.6,472.061 765.88,471.021 766.84,469.773C767.8,468.525 768.472,467.213 768.856,465.837C769.24,464.461 769.432,463.229 769.432,462.141C769.432,461.117 769.256,459.917 768.904,458.541C768.552,457.165 767.912,455.869 766.984,454.653C766.056,453.437 764.792,452.413 763.192,451.581C761.592,450.749 759.544,450.333 757.048,450.333L747.544,450.333L747.544,474.141ZM735.832,509.277L735.832,439.293L755.608,439.293C759.448,439.293 762.952,439.805 766.12,440.829C769.288,441.853 771.976,443.325 774.184,445.245C776.392,447.165 778.104,449.533 779.32,452.349C780.536,455.165 781.144,458.333 781.144,461.853C781.144,464.669 780.728,467.469 779.896,470.253C779.064,473.037 777.704,475.533 775.816,477.741C773.928,479.949 771.48,481.741 768.472,483.117C765.464,484.493 761.752,485.181 757.336,485.181L747.544,485.181L747.544,509.277L735.832,509.277Z" style="fill-rule:nonzero;"/>
        </g>
        <g transform="matrix(1,0,0,1,-533.357,-107.075)">
            <path d="M828.856,509.277C828.664,508.829 828.328,508.029 827.848,506.877C827.368,505.725 826.776,504.317 826.072,502.653C825.368,500.989 824.6,499.149 823.768,497.133C822.936,495.117 822.072,493.021 821.176,490.845L797.08,490.845L789.4,509.277L777.784,509.277C778.04,508.701 778.648,507.277 779.608,505.005C780.568,502.733 781.768,499.917 783.208,496.557C784.648,493.197 786.248,489.453 788.008,485.325C789.768,481.197 791.576,476.989 793.432,472.701C795.288,468.413 797.096,464.205 798.856,460.077C800.616,455.949 802.216,452.205 803.656,448.845C805.096,445.485 806.296,442.669 807.256,440.397C808.216,438.125 808.824,436.701 809.08,436.125C809.336,436.701 809.96,438.125 810.952,440.397C811.944,442.669 813.16,445.485 814.6,448.845C816.04,452.205 817.64,455.949 819.4,460.077C821.16,464.205 822.968,468.413 824.824,472.701C826.68,476.989 828.488,481.197 830.248,485.325C832.008,489.453 833.608,493.197 835.048,496.557C836.488,499.917 837.688,502.733 838.648,505.005C839.608,507.277 840.216,508.701 840.472,509.277L828.856,509.277ZM801.112,480.957L817.048,480.957L810.136,464.253C810.072,464.189 809.912,463.757 809.656,462.957C809.4,462.157 809.208,461.437 809.08,460.797C808.952,461.437 808.76,462.157 808.504,462.957C808.248,463.757 808.12,464.189 808.12,464.253L801.112,480.957ZM804.184,435.357C805.656,433.245 807.112,431.101 808.552,428.925C809.992,426.749 811.448,424.573 812.92,422.397L822.808,422.397C820.888,424.573 818.936,426.749 816.952,428.925C814.968,431.101 812.984,433.245 811,435.357L804.184,435.357Z" style="fill-rule:nonzero;"/>
        </g>
        <g transform="matrix(1,0,0,1,-533.357,-107.075)">
            <path d="M848.536,509.277L848.536,439.293L868.312,439.293C872.152,439.293 875.656,439.805 878.824,440.829C881.992,441.853 884.68,443.325 886.888,445.245C889.096,447.165 890.808,449.533 892.024,452.349C893.24,455.165 893.848,458.333 893.848,461.853C893.848,463.773 893.656,465.693 893.272,467.613C892.888,469.533 892.28,471.389 891.448,473.181C890.616,474.973 889.528,476.621 888.184,478.125C886.84,479.629 885.24,480.925 883.384,482.013C884.792,484.253 886.168,486.445 887.512,488.589C888.856,490.733 890.216,492.893 891.592,495.069C892.968,497.245 894.392,499.485 895.864,501.789C897.336,504.093 898.936,506.589 900.664,509.277L886.552,509.277C883.672,504.797 880.952,500.557 878.392,496.557C875.832,492.557 873.368,488.765 871,485.181L870.04,485.181L860.248,485.181L860.248,509.277L848.536,509.277ZM860.248,474.141L869.656,474.141C872.088,474.141 874.104,473.725 875.704,472.893C877.304,472.061 878.584,471.053 879.544,469.869C880.504,468.685 881.176,467.405 881.56,466.029C881.944,464.653 882.136,463.389 882.136,462.237C882.136,461.149 881.96,459.917 881.608,458.541C881.256,457.165 880.616,455.869 879.688,454.653C878.76,453.437 877.496,452.413 875.896,451.581C874.296,450.749 872.248,450.333 869.752,450.333L860.248,450.333L860.248,474.141Z" style="fill-rule:nonzero;"/>
        </g>
        <g transform="matrix(1,0,0,1,-533.357,-107.075)">
            <path d="M903.832,474.429C903.832,469.565 904.776,464.957 906.664,460.605C908.552,456.253 911.112,452.445 914.344,449.181C917.576,445.917 921.352,443.325 925.672,441.405C929.992,439.485 934.616,438.525 939.544,438.525C944.408,438.525 949.016,439.485 953.368,441.405C957.72,443.325 961.528,445.917 964.792,449.181C968.056,452.445 970.632,456.253 972.52,460.605C974.408,464.957 975.352,469.565 975.352,474.429C975.352,479.357 974.408,483.981 972.52,488.301C970.632,492.621 968.056,496.397 964.792,499.629C961.528,502.861 957.72,505.405 953.368,507.261C949.016,509.117 944.408,510.045 939.544,510.045C934.616,510.045 929.992,509.117 925.672,507.261C921.352,505.405 917.576,502.861 914.344,499.629C911.112,496.397 908.552,492.621 906.664,488.301C904.776,483.981 903.832,479.357 903.832,474.429ZM915.64,474.429C915.64,477.821 916.264,481.005 917.512,483.981C918.76,486.957 920.488,489.549 922.696,491.757C924.904,493.965 927.464,495.709 930.376,496.989C933.288,498.269 936.44,498.909 939.832,498.909C943.096,498.909 946.184,498.269 949.096,496.989C952.008,495.709 954.536,493.965 956.68,491.757C958.824,489.549 960.52,486.957 961.768,483.981C963.016,481.005 963.64,477.821 963.64,474.429C963.64,471.037 963,467.853 961.72,464.877C960.44,461.901 958.712,459.293 956.536,457.053C954.36,454.813 951.816,453.053 948.904,451.773C945.992,450.493 942.872,449.853 939.544,449.853C936.216,449.853 933.096,450.493 930.184,451.773C927.272,453.053 924.744,454.813 922.6,457.053C920.456,459.293 918.76,461.901 917.512,464.877C916.264,467.853 915.64,471.037 915.64,474.429Z" style="fill-rule:nonzero;"/>
        </g>
        <g transform="matrix(1,0,0,1,-533.357,-107.075)">
            <path d="M987.544,439.293L1006.26,484.317C1006.26,484.381 1006.39,484.813 1006.65,485.613C1006.9,486.413 1007.1,487.165 1007.22,487.869C1007.35,487.165 1007.54,486.413 1007.8,485.613C1008.06,484.813 1008.22,484.381 1008.28,484.317L1027,439.293L1038.62,439.293C1038.36,439.869 1037.75,441.309 1036.79,443.613C1035.83,445.917 1034.63,448.749 1033.19,452.109C1031.75,455.469 1030.15,459.213 1028.39,463.341C1026.63,467.469 1024.82,471.661 1022.97,475.917C1021.11,480.173 1019.3,484.381 1017.54,488.541C1015.78,492.701 1014.18,496.461 1012.74,499.821C1011.3,503.181 1010.09,505.997 1009.1,508.269C1008.1,510.541 1007.48,511.965 1007.22,512.541C1006.97,511.965 1006.36,510.541 1005.4,508.269C1004.44,505.997 1003.24,503.181 1001.8,499.821C1000.36,496.461 998.76,492.701 997,488.541C995.24,484.381 993.432,480.173 991.576,475.917C989.72,471.661 987.912,467.469 986.152,463.341C984.392,459.213 982.792,455.469 981.352,452.109C979.912,448.749 978.712,445.917 977.752,443.613C976.792,441.309 976.184,439.869 975.928,439.293L987.544,439.293Z" style="fill-rule:nonzero;"/>
        </g>
        <g transform="matrix(1,0,0,1,-533.357,-107.075)">
            <path d="M1083.54,509.277C1083.35,508.829 1083.02,508.029 1082.54,506.877C1082.06,505.725 1081.46,504.317 1080.76,502.653C1080.06,500.989 1079.29,499.149 1078.46,497.133C1077.62,495.117 1076.76,493.021 1075.86,490.845L1051.77,490.845L1044.09,509.277L1032.47,509.277C1032.73,508.701 1033.34,507.277 1034.3,505.005C1035.26,502.733 1036.46,499.917 1037.9,496.557C1039.34,493.197 1040.94,489.453 1042.7,485.325C1044.46,481.197 1046.26,476.989 1048.12,472.701C1049.98,468.413 1051.78,464.205 1053.54,460.077C1055.3,455.949 1056.9,452.205 1058.34,448.845C1059.78,445.485 1060.98,442.669 1061.94,440.397C1062.9,438.125 1063.51,436.701 1063.77,436.125C1064.02,436.701 1064.65,438.125 1065.64,440.397C1066.63,442.669 1067.85,445.485 1069.29,448.845C1070.73,452.205 1072.33,455.949 1074.09,460.077C1075.85,464.205 1077.66,468.413 1079.51,472.701C1081.37,476.989 1083.18,481.197 1084.94,485.325C1086.7,489.453 1088.3,493.197 1089.74,496.557C1091.18,499.917 1092.38,502.733 1093.34,505.005C1094.3,507.277 1094.9,508.701 1095.16,509.277L1083.54,509.277ZM1055.8,480.957L1071.74,480.957L1064.82,464.253C1064.76,464.189 1064.6,463.757 1064.34,462.957C1064.09,462.157 1063.9,461.437 1063.77,460.797C1063.64,461.437 1063.45,462.157 1063.19,462.957C1062.94,463.757 1062.81,464.189 1062.81,464.253L1055.8,480.957ZM1058.87,435.357C1060.34,433.245 1061.8,431.101 1063.24,428.925C1064.68,426.749 1066.14,424.573 1067.61,422.397L1077.5,422.397C1075.58,424.573 1073.62,426.749 1071.64,428.925C1069.66,431.101 1067.67,433.245 1065.69,435.357L1058.87,435.357Z" style="fill-rule:nonzero;"/>
        </g>
    </g>
    <g transform="matrix(1.32103,0,0,1.22998,-768.512,-277.993)">
        <g transform="matrix(1,0,0,1,-533.357,-107.075)">
            <path d="M1161.59,439.293L1161.59,450.525L1144.31,450.525L1144.31,509.277L1132.5,509.277L1132.5,450.525L1115.61,450.525L1115.61,439.293L1161.59,439.293Z" style="fill-rule:nonzero;"/>
        </g>
        <g transform="matrix(1,0,0,1,-533.357,-107.075)">
            <path d="M1173.69,509.277L1173.69,439.293L1220.15,439.293L1220.15,449.949L1185.4,449.949L1185.4,468.765L1216.31,468.765L1216.31,479.709L1185.4,479.709L1185.4,498.333L1221.5,498.333L1221.5,509.277L1173.69,509.277Z" style="fill-rule:nonzero;"/>
        </g>
        <g transform="matrix(1,0,0,1,-533.357,-107.075)">
            <path d="M1233.11,509.277L1233.11,439.293L1252.89,439.293C1256.73,439.293 1260.23,439.805 1263.4,440.829C1266.57,441.853 1269.26,443.325 1271.46,445.245C1273.67,447.165 1275.38,449.533 1276.6,452.349C1277.82,455.165 1278.42,458.333 1278.42,461.853C1278.42,463.773 1278.23,465.693 1277.85,467.613C1277.46,469.533 1276.86,471.389 1276.02,473.181C1275.19,474.973 1274.1,476.621 1272.76,478.125C1271.42,479.629 1269.82,480.925 1267.96,482.013C1269.37,484.253 1270.74,486.445 1272.09,488.589C1273.43,490.733 1274.79,492.893 1276.17,495.069C1277.54,497.245 1278.97,499.485 1280.44,501.789C1281.91,504.093 1283.51,506.589 1285.24,509.277L1271.13,509.277C1268.25,504.797 1265.53,500.557 1262.97,496.557C1260.41,492.557 1257.94,488.765 1255.58,485.181L1254.62,485.181L1244.82,485.181L1244.82,509.277L1233.11,509.277ZM1244.82,474.141L1254.23,474.141C1256.66,474.141 1258.68,473.725 1260.28,472.893C1261.88,472.061 1263.16,471.053 1264.12,469.869C1265.08,468.685 1265.75,467.405 1266.14,466.029C1266.52,464.653 1266.71,463.389 1266.71,462.237C1266.71,461.149 1266.54,459.917 1266.18,458.541C1265.83,457.165 1265.19,455.869 1264.26,454.653C1263.34,453.437 1262.07,452.413 1260.47,451.581C1258.87,450.749 1256.82,450.333 1254.33,450.333L1244.82,450.333L1244.82,474.141Z" style="fill-rule:nonzero;"/>
        </g>
        <g transform="matrix(1,0,0,1,-533.357,-107.075)">
            <path d="M1337.18,509.277C1336.98,508.829 1336.65,508.029 1336.17,506.877C1335.69,505.725 1335.1,504.317 1334.39,502.653C1333.69,500.989 1332.92,499.149 1332.09,497.133C1331.26,495.117 1330.39,493.021 1329.5,490.845L1305.4,490.845L1297.72,509.277L1286.1,509.277C1286.36,508.701 1286.97,507.277 1287.93,505.005C1288.89,502.733 1290.09,499.917 1291.53,496.557C1292.97,493.197 1294.57,489.453 1296.33,485.325C1298.09,481.197 1299.9,476.989 1301.75,472.701C1303.61,468.413 1305.42,464.205 1307.18,460.077C1308.94,455.949 1310.54,452.205 1311.98,448.845C1313.42,445.485 1314.62,442.669 1315.58,440.397C1316.54,438.125 1317.14,436.701 1317.4,436.125C1317.66,436.701 1318.28,438.125 1319.27,440.397C1320.26,442.669 1321.48,445.485 1322.92,448.845C1324.36,452.205 1325.96,455.949 1327.72,460.077C1329.48,464.205 1331.29,468.413 1333.14,472.701C1335,476.989 1336.81,481.197 1338.57,485.325C1340.33,489.453 1341.93,493.197 1343.37,496.557C1344.81,499.917 1346.01,502.733 1346.97,505.005C1347.93,507.277 1348.54,508.701 1348.79,509.277L1337.18,509.277ZM1309.43,480.957L1325.37,480.957L1318.46,464.253C1318.39,464.189 1318.23,463.757 1317.98,462.957C1317.72,462.157 1317.53,461.437 1317.4,460.797C1317.27,461.437 1317.08,462.157 1316.82,462.957C1316.57,463.757 1316.44,464.189 1316.44,464.253L1309.43,480.957Z" style="fill-rule:nonzero;"/>
        </g>
        <g transform="matrix(1,0,0,1,-533.357,-107.075)">
            <path d="M1368.57,474.141L1377.98,474.141C1380.41,474.141 1382.42,473.725 1384.02,472.893C1385.62,472.061 1386.9,471.021 1387.86,469.773C1388.82,468.525 1389.5,467.213 1389.88,465.837C1390.26,464.461 1390.46,463.229 1390.46,462.141C1390.46,461.117 1390.28,459.917 1389.93,458.541C1389.58,457.165 1388.94,455.869 1388.01,454.653C1387.08,453.437 1385.82,452.413 1384.22,451.581C1382.62,450.749 1380.57,450.333 1378.07,450.333L1368.57,450.333L1368.57,474.141ZM1356.86,509.277L1356.86,439.293L1376.63,439.293C1380.47,439.293 1383.98,439.805 1387.14,440.829C1390.31,441.853 1393,443.325 1395.21,445.245C1397.42,447.165 1399.13,449.533 1400.34,452.349C1401.56,455.165 1402.17,458.333 1402.17,461.853C1402.17,464.669 1401.75,467.469 1400.92,470.253C1400.09,473.037 1398.73,475.533 1396.84,477.741C1394.95,479.949 1392.5,481.741 1389.5,483.117C1386.49,484.493 1382.78,485.181 1378.36,485.181L1368.57,485.181L1368.57,509.277L1356.86,509.277Z" style="fill-rule:nonzero;"/>
        </g>
        <g transform="matrix(1,0,0,1,-533.357,-107.075)">
            <rect x="1412.82" y="439.293" width="11.808" height="69.984" style="fill-rule:nonzero;"/>
        </g>
        <g transform="matrix(1,0,0,1,-533.357,-107.075)">
            <path d="M1440.76,509.277L1440.76,439.293L1487.22,439.293L1487.22,449.949L1452.47,449.949L1452.47,468.765L1483.38,468.765L1483.38,479.709L1452.47,479.709L1452.47,498.333L1488.57,498.333L1488.57,509.277L1440.76,509.277Z" style="fill-rule:nonzero;"/>
        </g>
    </g>
    <g transform="matrix(0.435156,0,0,0.484896,-92.731,-233.841)">
        <path d="M308.057,525.467L260.786,525.467L213.098,708.348L260.369,708.348L308.057,525.467Z" style="fill:rgb(255,170,0);"/>
        <g transform="matrix(1,0,0,1,76.2292,-5.68434e-14)">
            <path d="M308.057,525.467L260.786,525.467L213.098,708.348L260.369,708.348L308.057,525.467Z" style="fill:rgb(255,170,0);"/>
        </g>
    </g>
</svg>
